<svg width="56" height="56" viewBox="0 0 56 56" fill="none" xmlns="http://www.w3.org/2000/svg">
<rect width="56" height="56" rx="8" fill="white" fill-opacity="0.4"/>
<path d="M17.478 21.7102C16.8287 16.5158 20.879 11.9277 26.1138 11.9277H28.7391C31.2379 11.9277 33.4671 12.9721 35.0451 14.6285C32.567 14.7152 30.5846 16.7514 30.5846 19.2507C30.5846 21.805 32.6553 23.8757 35.2096 23.8757C35.9441 23.8757 36.6386 23.7045 37.2553 23.3998C37.3276 24.6316 37.8703 25.8023 38.7908 26.6571L38.8585 26.72C41.3456 29.0298 41.8283 32.7863 40.0059 35.6499C38.7148 37.6785 36.4769 38.9069 34.0723 38.9069H21.3986C18.6109 38.9069 16.0682 37.3142 14.8516 34.8061L14.6922 34.4776C13.387 31.7867 13.9976 28.5585 16.1956 26.5303C17.2562 25.5515 17.7794 24.121 17.6004 22.6889L17.478 21.7102Z" fill="white"/>
<path d="M22.4653 41.4506C22.9761 41.0675 23.7009 41.171 24.084 41.6819L24.5465 42.2986C26.1653 44.4569 29.4028 44.4569 31.0215 42.2986L31.484 41.6819C31.8672 41.171 32.5919 41.0675 33.1028 41.4506C33.6136 41.8338 33.7172 42.5585 33.334 43.0694L32.8715 43.6861C30.3278 47.0777 25.2403 47.0777 22.6965 43.6861L22.234 43.0694C21.8509 42.5585 21.9544 41.8338 22.4653 41.4506Z" fill="white"/>
<path d="M38.5753 19.2507C38.5753 20.9535 37.1948 22.334 35.4919 22.334C33.789 22.334 32.4086 20.9535 32.4086 19.2507C32.4086 17.5478 33.789 16.1673 35.4919 16.1673C37.1948 16.1673 38.5753 17.5478 38.5753 19.2507Z" fill="white"/>
</svg>
