<svg width="30" height="30" viewBox="0 0 30 30" fill="none" xmlns="http://www.w3.org/2000/svg">
<path d="M27 0.545621C26.5481 -0.0569666 25.6934 -0.17909 25.0909 0.272851C24.4884 0.724791 24.3663 1.57966 24.8182 2.18224C26.4115 4.30694 27.2727 6.89117 27.2727 9.54704C27.2727 10.3003 27.8832 10.9109 28.6364 10.9109C29.3895 10.9109 30 10.3003 30 9.54704C30 6.30098 28.9473 3.14247 27 0.545621Z" fill="white"/>
<path d="M4.91925 0.280536C5.51749 0.738088 5.63161 1.59406 5.17413 2.19239C3.58869 4.26599 2.72727 6.83699 2.72727 9.54703C2.72727 10.3003 2.11675 10.9109 1.36364 10.9109C0.610521 10.9109 0 10.3003 0 9.54703C0 6.25613 1.04768 3.09895 3.00769 0.535451C3.46517 -0.0628871 4.32101 -0.177016 4.91925 0.280536Z" fill="white"/>
<path fill-rule="evenodd" clip-rule="evenodd" d="M15 9.63785e-05C12.4684 9.63785e-05 10.0405 1.00593 8.25034 2.79634C6.46022 4.58674 5.45454 7.01505 5.45454 9.54706C5.45454 14.1196 4.47672 16.9591 3.57559 18.6114C3.12315 19.441 2.68258 19.9853 2.37654 20.3084C2.22316 20.4703 2.10264 20.5777 2.03007 20.6381C1.99377 20.6684 1.96942 20.687 1.95893 20.6948L1.95503 20.6977C1.46619 21.0335 1.24986 21.6478 1.42214 22.2169C1.59628 22.7922 2.12636 23.1856 2.72727 23.1856H27.2727C27.8736 23.1856 28.4037 22.7922 28.5779 22.2169C28.7501 21.6478 28.5338 21.0335 28.045 20.6976L28.0411 20.6948C28.0306 20.687 28.0062 20.6684 27.9699 20.6381C27.8974 20.5777 27.7768 20.4703 27.6235 20.3084C27.3174 19.9853 26.8769 19.441 26.4244 18.6114C25.5233 16.9591 24.5455 14.1196 24.5455 9.54706C24.5455 7.01505 23.5398 4.58674 21.7497 2.79634C19.9595 1.00593 17.5316 9.63785e-05 15 9.63785e-05ZM24.3418 20.4579H5.65817C5.76192 20.2878 5.86608 20.1079 5.96986 19.9176C7.11418 17.8193 8.18182 14.5215 8.18182 9.54706C8.18182 7.73848 8.90016 6.00397 10.1788 4.72512C11.4575 3.44626 13.1917 2.7278 15 2.7278C16.8083 2.7278 18.5425 3.44626 19.8212 4.72512C21.0998 6.00397 21.8182 7.73848 21.8182 9.54706C21.8182 14.5215 22.8858 17.8193 24.0301 19.9176C24.1339 20.1079 24.2381 20.2878 24.3418 20.4579Z" fill="white"/>
<path d="M13.8205 26.5928C13.4426 25.9412 12.6081 25.7194 11.9567 26.0974C11.3052 26.4754 11.0835 27.3099 11.4614 27.9615C11.821 28.5815 12.3371 29.0962 12.9582 29.4539C13.5792 29.8117 14.2833 30 15 30C15.7167 30 16.4208 29.8117 17.0418 29.4539C17.6629 29.0962 18.179 28.5815 18.5386 27.9615C18.9165 27.3099 18.6948 26.4754 18.0433 26.0974C17.3919 25.7194 16.5574 25.9412 16.1795 26.5928C16.0597 26.7995 15.8876 26.971 15.6806 27.0903C15.4736 27.2095 15.2389 27.2723 15 27.2723C14.7611 27.2723 14.5264 27.2095 14.3194 27.0903C14.1124 26.971 13.9403 26.7995 13.8205 26.5928Z" fill="white"/>
</svg>
