<svg width="48" height="48" viewBox="0 0 48 48" fill="currentColor" xmlns="http://www.w3.org/2000/svg">
<path fill-rule="evenodd" clip-rule="evenodd" d="M29.5151 12.0081C29.0832 11.6791 28.6206 11.3878 28.1319 11.1388C27.0899 10.6078 25.9386 10.3721 24.545 10.2583C23.1765 10.1465 21.4737 10.1465 19.3018 10.1465H19.1956C17.0237 10.1465 15.3209 10.1465 13.9523 10.2583C12.5588 10.3721 11.4075 10.6078 10.3655 11.1388C8.65243 12.0116 7.25967 13.4044 6.38683 15.1174C5.85588 16.1595 5.62019 17.3107 5.50633 18.7043C5.39452 20.0728 5.39452 21.7756 5.39453 23.9475V24.0538C5.39452 26.2257 5.39452 27.9285 5.50633 29.297C5.62019 30.6906 5.85588 31.8418 6.38683 32.8839C6.63582 33.3725 6.92712 33.8351 7.2561 34.2671L29.5151 12.0081ZM11.7279 19.2507C11.7279 18.5948 12.2595 18.0632 12.9154 18.0632H19.2487C19.9045 18.0632 20.4362 18.5948 20.4362 19.2507C20.4362 19.9065 19.9045 20.4382 19.2487 20.4382H12.9154C12.2595 20.4382 11.7279 19.9065 11.7279 19.2507Z" fill="currentColor"/>
<path d="M35.8749 12.1737C36.3387 11.7099 36.3387 10.958 35.8749 10.4943C35.4112 10.0305 34.6593 10.0305 34.1955 10.4943L7.32548 37.3644C6.86173 37.8281 6.86173 38.58 7.32548 39.0437C7.78923 39.5075 8.54111 39.5075 9.00486 39.0437L10.9306 37.118C11.8232 37.4732 12.8058 37.6493 13.9523 37.743C15.3207 37.8548 17.0232 37.8548 19.1947 37.8548H19.3019C21.4733 37.8548 23.1767 37.8548 24.545 37.743C25.9386 37.6292 27.0899 37.3935 28.1319 36.8625C29.845 35.9897 31.2377 34.5969 32.1106 32.8839C32.1898 32.7284 32.2624 32.5705 32.3291 32.4096C34.1764 33.2166 35.6891 33.8718 36.9171 34.2049C38.2231 34.5592 39.4954 34.6322 40.6328 33.888C41.7701 33.1438 42.2127 31.9487 42.4109 30.61C42.603 29.3137 42.6029 27.6039 42.6029 25.5051V22.4962C42.6029 20.3974 42.603 18.6876 42.4109 17.3913C42.2127 16.0526 41.7701 14.8575 40.6328 14.1133C39.4954 13.3691 38.2231 13.4421 36.917 13.7964C35.7397 14.1158 34.3006 14.7312 32.5559 15.4927L35.8749 12.1737Z" fill="currentColor"/>
</svg>
