<svg width="56" height="56" viewBox="0 0 56 56" fill="none" xmlns="http://www.w3.org/2000/svg">
<rect width="56" height="56" rx="8" fill="white" fill-opacity="0.4"/>
<path d="M22.419 25.2795C20.9772 23.8457 20.0846 21.8601 20.0846 19.666C20.0846 17.4719 20.9772 15.4863 22.419 14.0525C21.5889 13.6449 20.6552 13.416 19.668 13.416C16.2162 13.416 13.418 16.2142 13.418 19.666C13.418 23.1178 16.2162 25.916 19.668 25.916C20.6552 25.916 21.5889 25.6871 22.419 25.2795Z" fill="white"/>
<path d="M21.7513 19.666C21.7513 16.2142 24.5495 13.416 28.0013 13.416C31.4531 13.416 34.2513 16.2142 34.2513 19.666C34.2513 23.1178 31.4531 25.916 28.0013 25.916C24.5495 25.916 21.7513 23.1178 21.7513 19.666Z" fill="white"/>
<path d="M33.5836 14.0525C35.0254 15.4863 35.918 17.4719 35.918 19.666C35.918 21.8601 35.0254 23.8457 33.5836 25.2795C34.4137 25.6871 35.3474 25.916 36.3346 25.916C39.7864 25.916 42.5846 23.1178 42.5846 19.666C42.5846 16.2142 39.7864 13.416 36.3346 13.416C35.3474 13.416 34.4137 13.6449 33.5836 14.0525Z" fill="white"/>
<path d="M16.7513 34.666C16.7513 31.2142 19.5495 28.416 23.0013 28.416H33.0013C36.4531 28.416 39.2513 31.2142 39.2513 34.666C39.2513 38.1178 36.4531 40.916 33.0013 40.916H23.0013C19.5495 40.916 16.7513 38.1178 16.7513 34.666Z" fill="white"/>
<path d="M8.41797 32.9993C8.41797 29.5476 11.2162 26.7493 14.668 26.7493H23.0013C18.629 26.7493 15.0846 30.2938 15.0846 34.666C15.0846 36.3741 15.6256 37.9559 16.5456 39.2493H14.668C11.2162 39.2493 8.41797 36.4511 8.41797 32.9993Z" fill="white"/>
<path d="M40.918 34.666C40.918 36.3741 40.377 37.9559 39.457 39.2493H41.3346C44.7864 39.2493 47.5846 36.4511 47.5846 32.9993C47.5846 29.5476 44.7864 26.7493 41.3346 26.7493H33.0013C37.3736 26.7493 40.918 30.2938 40.918 34.666Z" fill="white"/>
</svg>
