<svg width="218" height="92" viewBox="0 0 218 92" fill="none" xmlns="http://www.w3.org/2000/svg">
<g filter="url(#filter0_d_410_11466)">
<path d="M20 64.0015V20.7933L44.4474 17.5977L51.2687 23.7254V41.1466L44.4474 48.0738L29.3386 47.6477V65.1765L20 64.0015ZM39.5683 25.2167L29.3386 26.1765V40.8808L39.5683 40.7732V25.2167Z" fill="#B4C25D"/>
<path d="M56.0938 28.7343V19.4636L66.5354 16V26.6565L56.0959 28.7343H56.0938ZM56.0938 64.3234V33.2631L66.5332 31.8772V67.5212L56.0938 64.3256V64.3234Z" fill="#B4C25D"/>
<path d="M79.967 33.5303L99.5872 32.4123V68.0015L88.4643 66.4025V39.7634L79.9648 39.871V65.2319L71.0977 63.9537V32.9438L79.9648 32.3574V33.5303H79.967Z" fill="#B4C25D"/>
<path d="M109.553 64.8016L103.887 57.982V39.3353L109.553 33.0494L125.135 32.1445L132.48 38.7511V60.9141L125.135 66.9869L109.553 64.8016ZM120.832 39.388L113.225 39.4956V58.6233L120.832 59.4228V39.3902V39.388Z" fill="#B4C25D"/>
<path d="M142.341 64.8018L136.727 57.9822V39.3355L142.341 33.0496L157.136 32.0898L164.481 38.7491V44.6638L152.886 44.5034V39.3355L146.119 39.4431V58.729L152.886 59.3681V54.1475L164.481 54.9996V60.9143L157.084 66.9344L142.341 64.804V64.8018Z" fill="#B4C25D"/>
<path d="M174.397 64.8016L168.73 57.982V39.3353L174.397 33.0494L189.979 32.1445L197.324 38.7511V60.9141L189.979 66.9869L174.397 64.8016ZM185.678 39.388L178.071 39.4956V58.6233L185.678 59.4228V39.3902V39.388Z" fill="#B4C25D"/>
</g>
<defs>
<filter id="filter0_d_410_11466" x="0" y="0" width="217.324" height="92.002" filterUnits="userSpaceOnUse" color-interpolation-filters="sRGB">
<feFlood flood-opacity="0" result="BackgroundImageFix"/>
<feColorMatrix in="SourceAlpha" type="matrix" values="0 0 0 0 0 0 0 0 0 0 0 0 0 0 0 0 0 0 127 0" result="hardAlpha"/>
<feOffset dy="4"/>
<feGaussianBlur stdDeviation="10"/>
<feComposite in2="hardAlpha" operator="out"/>
<feColorMatrix type="matrix" values="0 0 0 0 0 0 0 0 0 0 0 0 0 0 0 0 0 0 0.12 0"/>
<feBlend mode="normal" in2="BackgroundImageFix" result="effect1_dropShadow_410_11466"/>
<feBlend mode="normal" in="SourceGraphic" in2="effect1_dropShadow_410_11466" result="shape"/>
</filter>
</defs>
</svg>
