<svg width="42" height="42" viewBox="0 0 42 42" fill="none" xmlns="http://www.w3.org/2000/svg">
<path fill-rule="evenodd" clip-rule="evenodd" d="M24.15 6.825C24.15 5.95515 24.8551 5.25 25.725 5.25H32.025C33.2781 5.25 34.48 5.74781 35.3661 6.63392C36.2522 7.52003 36.75 8.72185 36.75 9.975V32.025C36.75 33.2782 36.2522 34.48 35.3661 35.3661C34.48 36.2522 33.2781 36.75 32.025 36.75H25.725C24.8551 36.75 24.15 36.0448 24.15 35.175C24.15 34.3052 24.8551 33.6 25.725 33.6H32.025C32.4427 33.6 32.8433 33.4341 33.1387 33.1387C33.4341 32.8433 33.6 32.4427 33.6 32.025V9.975C33.6 9.55728 33.4341 9.15668 33.1387 8.86131C32.8433 8.56594 32.4427 8.4 32.025 8.4H25.725C24.8551 8.4 24.15 7.69485 24.15 6.825ZM16.7363 12.0113C17.3514 11.3962 18.3486 11.3962 18.9637 12.0113L26.8352 19.8828C26.8468 19.8943 26.8581 19.906 26.8693 19.9178C27.0017 20.0576 27.1036 20.2158 27.1749 20.3838C27.2554 20.5731 27.3 20.7813 27.3 21C27.3 21.2186 27.2554 21.4269 27.1749 21.6161C27.1036 21.7842 27.0017 21.9423 26.8693 22.0822C26.8581 22.094 26.8468 22.1057 26.8352 22.1171L18.9637 29.9887C18.3486 30.6037 17.3514 30.6037 16.7363 29.9887C16.1212 29.3736 16.1212 28.3764 16.7363 27.7613L21.9226 22.575H6.825C5.95515 22.575 5.25 21.8698 5.25 21C5.25 20.1301 5.95515 19.425 6.825 19.425H21.9226L16.7363 14.2387C16.1212 13.6236 16.1212 12.6264 16.7363 12.0113Z" fill="white"/>
</svg>
