<svg width="48" height="48" viewBox="0 0 48 48" fill="currentColor" xmlns="http://www.w3.org/2000/svg">
<path fill-rule="evenodd" clip-rule="evenodd" d="M16.0833 22.8125C15.4275 22.8125 14.8958 23.3442 14.8958 24C14.8958 24.6558 15.4275 25.1875 16.0833 25.1875L28.75 25.1875L28.75 28.75C28.75 30.2209 28.75 30.9564 28.6525 31.5718C28.116 34.9593 25.4593 37.616 22.0718 38.1525C21.4564 38.25 20.7209 38.25 19.25 38.25C17.7791 38.25 17.0436 38.25 16.4282 38.1525C13.0407 37.616 10.384 34.9593 9.84746 31.5718C9.75 30.9564 9.75 30.2209 9.75 28.75L9.75 19.25C9.75 17.7791 9.75 17.0436 9.84747 16.4282C10.384 13.0407 13.0407 10.384 16.4282 9.84747C17.0436 9.75 17.7791 9.75 19.25 9.75C20.7209 9.75 21.4564 9.75 22.0718 9.84747C25.4593 10.384 28.116 13.0407 28.6525 16.4282C28.75 17.0436 28.75 17.7791 28.75 19.25L28.75 22.8125L16.0833 22.8125ZM28.75 22.8125L36.3666 22.8125C35.8481 22.3016 35.085 21.6943 33.9702 20.8104L31.1789 18.5972C30.665 18.1897 30.5787 17.4428 30.9862 16.9289C31.3936 16.415 32.1406 16.3287 32.6545 16.7362L35.5025 18.9944C36.5673 19.8386 37.4459 20.5352 38.0718 21.1587C38.7142 21.7986 39.2466 22.5087 39.3912 23.4163C39.422 23.6096 39.4375 23.8046 39.4375 24C39.4375 24.1954 39.422 24.3904 39.3912 24.5837C39.2466 25.4912 38.7142 26.2014 38.0718 26.8413C37.4459 27.4648 36.5673 28.1614 35.5026 29.0056L32.6545 31.2638C32.1406 31.6713 31.3936 31.585 30.9862 31.0711C30.5787 30.5572 30.665 29.8103 31.1789 29.4028L33.9702 27.1896C35.085 26.3057 35.8481 25.6984 36.3666 25.1875L28.75 25.1875L28.75 22.8125Z" fill="currentColor"/>
</svg>
