<svg width="48" height="48" viewBox="0 0 48 48" fill="currentColor" xmlns="http://www.w3.org/2000/svg">
<path d="M36.2215 6.13883C36.6853 5.67508 37.4371 5.67508 37.9009 6.13883C38.3646 6.60257 38.3646 7.35446 37.9009 7.8182L10.9842 34.7349C10.5205 35.1986 9.76859 35.1986 9.30484 34.7349C8.84109 34.2711 8.84109 33.5192 9.30484 33.0555L13.0446 29.3158C11.2267 26.9718 10.1445 24.0286 10.1445 20.8327C10.1445 20.1768 10.6762 19.6452 11.332 19.6452C11.9879 19.6452 12.5195 20.1768 12.5195 20.8327C12.5195 23.3721 13.3441 25.719 14.7402 27.6201L17.5899 24.7704C16.8847 23.6251 16.4779 22.2764 16.4779 20.8327V14.4993C16.4779 10.3457 19.8451 6.97852 23.9987 6.97852C27.0761 6.97852 29.7219 8.8269 30.8863 11.474L36.2215 6.13883Z" fill="currentColor"/>
<path d="M18.1648 30.721L16.4404 32.4454C18.3022 33.6596 20.474 34.4383 22.8112 34.6367V38.1749C22.4685 38.22 22.1277 38.2847 21.7906 38.369L20.544 38.6806C19.9078 38.8397 19.5209 39.4844 19.68 40.1207C19.8391 40.7569 20.4838 41.1438 21.12 40.9847L22.3666 40.6731C22.9024 40.5391 23.4506 40.4722 23.9987 40.4722C24.5468 40.4722 25.095 40.5391 25.6308 40.6731L26.8774 40.9847C27.5136 41.1438 28.1583 40.7569 28.3174 40.1207C28.4765 39.4844 28.0896 38.8397 27.4534 38.6806L26.2068 38.369C25.8696 38.2847 25.5289 38.22 25.1862 38.1749V34.6367C32.2817 34.0343 37.8529 28.0841 37.8529 20.8327C37.8529 20.1768 37.3212 19.6452 36.6654 19.6452C36.0095 19.6452 35.4779 20.1768 35.4779 20.8327C35.4779 27.1725 30.3385 32.3118 23.9987 32.3118C21.8688 32.3118 19.8744 31.7318 18.1648 30.721Z" fill="currentColor"/>
<path d="M31.5195 17.3662L21.1079 27.7779C21.9979 28.1487 22.9744 28.3535 23.9987 28.3535C28.1523 28.3535 31.5195 24.9863 31.5195 20.8327V17.3662Z" fill="currentColor"/>
</svg>
