<svg width="48" height="48" viewBox="0 0 48 48" fill="none" xmlns="http://www.w3.org/2000/svg">
<path d="M23.9987 6.97852C19.8451 6.97852 16.4779 10.3457 16.4779 14.4993V20.8327C16.4779 24.9863 19.8451 28.3535 23.9987 28.3535C28.1523 28.3535 31.5195 24.9863 31.5195 20.8327V14.4993C31.5195 10.3457 28.1523 6.97852 23.9987 6.97852Z" fill="black"/>
<path d="M12.5195 20.8327C12.5195 20.1768 11.9879 19.6452 11.332 19.6452C10.6762 19.6452 10.1445 20.1768 10.1445 20.8327C10.1445 28.0841 15.7156 34.0343 22.8112 34.6367V38.1749C22.4685 38.22 22.1277 38.2847 21.7906 38.369L20.544 38.6806C19.9078 38.8397 19.5209 39.4844 19.68 40.1207C19.8391 40.7569 20.4838 41.1438 21.12 40.9847L22.3666 40.6731C22.9024 40.5391 23.4506 40.4722 23.9987 40.4722C24.5468 40.4722 25.095 40.5391 25.6308 40.6731L26.8774 40.9847C27.5136 41.1438 28.1583 40.7569 28.3174 40.1207C28.4765 39.4844 28.0896 38.8397 27.4534 38.6806L26.2068 38.369C25.8696 38.2847 25.5289 38.22 25.1862 38.1749V34.6367C32.2818 34.0343 37.8529 28.0841 37.8529 20.8327C37.8529 20.1768 37.3212 19.6452 36.6654 19.6452C36.0095 19.6452 35.4779 20.1768 35.4779 20.8327C35.4779 27.1725 30.3385 32.3118 23.9987 32.3118C17.6589 32.3118 12.5195 27.1725 12.5195 20.8327Z" fill="black"/>
</svg>
